<?xml version="1.0" encoding="UTF-8"?>
<!DOCTYPE svg PUBLIC "-//W3C//DTD SVG 1.1//EN" "http://www.w3.org/Graphics/SVG/1.1/DTD/svg11.dtd">
<!-- Creator: CorelDRAW 2020 (64-Bit) -->
<svg xmlns="http://www.w3.org/2000/svg" xml:space="preserve" width="89px" height="27px" version="1.1" style="shape-rendering:geometricPrecision; text-rendering:geometricPrecision; image-rendering:optimizeQuality; fill-rule:evenodd; clip-rule:evenodd"
viewBox="0 0 39.9 12.13"
 xmlns:xlink="http://www.w3.org/1999/xlink"
 xmlns:xodm="http://www.corel.com/coreldraw/odm/2003">
 <defs>
  <style type="text/css">
   <![CDATA[
    .fil0 {fill:black;fill-rule:nonzero}
    .fil1 {fill:white;fill-rule:nonzero}
   ]]>
  </style>
 </defs>
 <g id="Слой_x0020_1">
  <metadata id="CorelCorpID_0Corel-Layer"/>
  <path class="fil0" d="M38.36 12.13l-36.82 0c-0.85,0 -1.54,-0.69 -1.54,-1.54l0 -9.05c0,-0.85 0.69,-1.54 1.54,-1.54l36.82 0c0.85,0 1.54,0.69 1.54,1.54l0 9.05c0,0.85 -0.69,1.54 -1.54,1.54z"/>
  <path class="fil1" d="M3.63 4.96c-0.65,1.12 -0.24,2.83 0.48,3.86 0.35,0.52 0.72,0.98 1.21,0.98 0.01,0 0.02,0 0.03,0 0.23,-0.01 0.4,-0.08 0.56,-0.15 0.19,-0.08 0.37,-0.16 0.67,-0.16 0.28,0 0.46,0.08 0.64,0.15 0.17,0.08 0.34,0.16 0.61,0.15 0.55,-0.01 0.9,-0.51 1.2,-0.95 0.31,-0.46 0.47,-0.91 0.53,-1.08l0 -0.01c0.01,-0.03 -0.01,-0.06 -0.04,-0.08 0,0 0,0 0,0 -0.1,-0.04 -0.96,-0.42 -0.97,-1.46 -0.01,-0.85 0.65,-1.3 0.78,-1.38l0 0c0.02,-0.01 0.03,-0.03 0.03,-0.04 0.01,-0.02 0,-0.04 -0.01,-0.05 -0.45,-0.66 -1.14,-0.76 -1.42,-0.77 -0.04,-0.01 -0.08,-0.01 -0.13,-0.01 -0.32,0 -0.64,0.12 -0.89,0.22 -0.17,0.07 -0.32,0.13 -0.43,0.13 -0.12,0 -0.27,-0.06 -0.44,-0.13 -0.24,-0.09 -0.5,-0.2 -0.78,-0.2 -0.01,0 -0.02,0 -0.02,0 -0.66,0.01 -1.27,0.39 -1.61,0.98z"/>
  <path class="fil1" d="M7.93 2.14c-0.4,0.02 -0.87,0.26 -1.16,0.6 -0.24,0.27 -0.47,0.74 -0.41,1.21 0,0.03 0.03,0.05 0.06,0.05 0.02,0.01 0.05,0.01 0.08,0.01 0.39,0 0.8,-0.22 1.09,-0.56 0.3,-0.36 0.45,-0.83 0.4,-1.25 0,-0.03 -0.03,-0.06 -0.06,-0.06z"/>
  <path class="fil1" d="M13.22 4.54c0.18,0 0.33,-0.03 0.46,-0.1 0.14,-0.07 0.24,-0.17 0.31,-0.3 0.08,-0.12 0.11,-0.26 0.11,-0.42 0,-0.16 -0.03,-0.31 -0.11,-0.43 -0.07,-0.13 -0.17,-0.22 -0.31,-0.29 -0.13,-0.07 -0.28,-0.11 -0.46,-0.11l-0.6 0 0 1.65 0.6 0zm-0.74 -1.77l0.75 0c0.2,0 0.37,0.04 0.53,0.12 0.15,0.08 0.27,0.19 0.35,0.34 0.09,0.14 0.13,0.3 0.13,0.49 0,0.18 -0.04,0.34 -0.13,0.49 -0.08,0.14 -0.2,0.25 -0.35,0.33 -0.16,0.08 -0.33,0.12 -0.53,0.12l-0.75 0 0 -1.89z"/>
  <path class="fil1" d="M15.52 4.48c0.09,-0.05 0.15,-0.12 0.2,-0.21 0.05,-0.09 0.08,-0.2 0.08,-0.31 0,-0.12 -0.03,-0.22 -0.08,-0.31 -0.05,-0.09 -0.11,-0.16 -0.2,-0.21 -0.09,-0.05 -0.18,-0.08 -0.29,-0.08 -0.11,0 -0.21,0.03 -0.29,0.08 -0.09,0.05 -0.16,0.12 -0.21,0.21 -0.05,0.09 -0.07,0.19 -0.07,0.31 0,0.11 0.02,0.22 0.07,0.31 0.05,0.09 0.12,0.16 0.21,0.21 0.08,0.05 0.18,0.07 0.29,0.07 0.11,0 0.2,-0.02 0.29,-0.07zm-0.65 0.1c-0.11,-0.06 -0.2,-0.14 -0.26,-0.25 -0.06,-0.11 -0.09,-0.24 -0.09,-0.37 0,-0.14 0.03,-0.26 0.09,-0.37 0.06,-0.11 0.15,-0.2 0.26,-0.26 0.1,-0.06 0.22,-0.09 0.36,-0.09 0.13,0 0.25,0.03 0.36,0.09 0.11,0.06 0.19,0.15 0.25,0.26 0.06,0.11 0.1,0.23 0.1,0.37 0,0.13 -0.04,0.26 -0.1,0.37 -0.06,0.11 -0.14,0.19 -0.25,0.25 -0.11,0.06 -0.23,0.1 -0.36,0.1 -0.14,0 -0.26,-0.04 -0.36,-0.1z"/>
  <polygon class="fil1" points="18.34,3.25 17.8,4.66 17.67,4.66 17.2,3.44 16.72,4.66 16.59,4.66 16.05,3.25 16.18,3.25 16.66,4.51 17.14,3.25 17.25,3.25 17.73,4.51 18.21,3.25 "/>
  <path class="fil1" d="M19.76 3.39c0.1,0.11 0.15,0.26 0.15,0.45l0 0.82 -0.13 0 0 -0.81c0,-0.16 -0.04,-0.28 -0.12,-0.36 -0.08,-0.09 -0.19,-0.13 -0.34,-0.13 -0.16,0 -0.3,0.05 -0.39,0.15 -0.1,0.1 -0.14,0.23 -0.14,0.4l0 0.75 -0.14 0 0 -1.41 0.13 0 0 0.31c0.05,-0.1 0.12,-0.18 0.22,-0.24 0.09,-0.05 0.21,-0.08 0.34,-0.08 0.18,0 0.32,0.05 0.42,0.15z"/>
  <polygon class="fil1" points="20.47,4.66 20.61,4.66 20.61,2.65 20.47,2.65 "/>
  <path class="fil1" d="M22.02 4.48c0.09,-0.05 0.16,-0.12 0.21,-0.21 0.05,-0.09 0.07,-0.2 0.07,-0.31 0,-0.12 -0.02,-0.22 -0.07,-0.31 -0.05,-0.09 -0.12,-0.16 -0.21,-0.21 -0.08,-0.05 -0.18,-0.08 -0.29,-0.08 -0.11,0 -0.2,0.03 -0.29,0.08 -0.08,0.05 -0.15,0.12 -0.2,0.21 -0.05,0.09 -0.08,0.19 -0.08,0.31 0,0.11 0.03,0.22 0.08,0.31 0.05,0.09 0.12,0.16 0.2,0.21 0.09,0.05 0.18,0.07 0.29,0.07 0.11,0 0.21,-0.02 0.29,-0.07zm-0.65 0.1c-0.11,-0.06 -0.19,-0.14 -0.25,-0.25 -0.06,-0.11 -0.09,-0.24 -0.09,-0.37 0,-0.14 0.03,-0.26 0.09,-0.37 0.06,-0.11 0.14,-0.2 0.25,-0.26 0.11,-0.06 0.23,-0.09 0.36,-0.09 0.14,0 0.26,0.03 0.36,0.09 0.11,0.06 0.2,0.15 0.26,0.26 0.06,0.11 0.09,0.23 0.09,0.37 0,0.13 -0.03,0.26 -0.09,0.37 -0.06,0.11 -0.15,0.19 -0.26,0.25 -0.1,0.06 -0.22,0.1 -0.36,0.1 -0.13,0 -0.25,-0.04 -0.36,-0.1z"/>
  <path class="fil1" d="M23.55 4.48c0.09,-0.05 0.15,-0.13 0.19,-0.23l0 -0.27 -0.48 0c-0.14,0 -0.24,0.03 -0.3,0.08 -0.07,0.05 -0.1,0.12 -0.1,0.21 0,0.09 0.04,0.16 0.11,0.21 0.06,0.06 0.16,0.08 0.29,0.08 0.11,0 0.21,-0.02 0.29,-0.08zm0.18 -1.11c0.1,0.09 0.15,0.22 0.15,0.4l0 0.89 -0.13 0 0 -0.25c-0.05,0.09 -0.12,0.15 -0.2,0.2 -0.09,0.04 -0.19,0.07 -0.31,0.07 -0.16,0 -0.29,-0.04 -0.38,-0.12 -0.09,-0.07 -0.13,-0.17 -0.13,-0.29 0,-0.12 0.04,-0.21 0.12,-0.28 0.09,-0.08 0.22,-0.11 0.41,-0.11l0.48 0 0 -0.12c0,-0.13 -0.04,-0.23 -0.11,-0.3 -0.07,-0.07 -0.17,-0.1 -0.31,-0.1 -0.09,0 -0.18,0.02 -0.27,0.05 -0.09,0.03 -0.16,0.07 -0.22,0.13l-0.07 -0.1c0.07,-0.06 0.16,-0.11 0.26,-0.15 0.1,-0.03 0.2,-0.05 0.31,-0.05 0.18,0 0.31,0.04 0.4,0.13z"/>
  <path class="fil1" d="M25.28 4.48c0.09,-0.05 0.15,-0.12 0.2,-0.21 0.05,-0.09 0.08,-0.2 0.08,-0.31 0,-0.12 -0.03,-0.22 -0.08,-0.31 -0.05,-0.09 -0.11,-0.16 -0.2,-0.21 -0.09,-0.05 -0.18,-0.08 -0.29,-0.08 -0.11,0 -0.21,0.03 -0.29,0.08 -0.09,0.05 -0.16,0.12 -0.21,0.21 -0.05,0.09 -0.07,0.19 -0.07,0.31 0,0.11 0.02,0.22 0.07,0.31 0.05,0.09 0.12,0.16 0.21,0.21 0.08,0.05 0.18,0.07 0.29,0.07 0.11,0 0.2,-0.02 0.29,-0.07zm0.41 -1.83l0 2.01 -0.13 0 0 -0.33c-0.06,0.11 -0.13,0.2 -0.24,0.26 -0.1,0.06 -0.21,0.09 -0.34,0.09 -0.13,0 -0.25,-0.04 -0.36,-0.1 -0.1,-0.06 -0.19,-0.14 -0.25,-0.25 -0.06,-0.11 -0.09,-0.23 -0.09,-0.37 0,-0.14 0.03,-0.27 0.09,-0.38 0.06,-0.1 0.15,-0.19 0.25,-0.25 0.11,-0.06 0.23,-0.09 0.36,-0.09 0.13,0 0.24,0.03 0.34,0.09 0.1,0.06 0.18,0.14 0.24,0.25l0 -0.93 0.13 0z"/>
  <path class="fil1" d="M27.8 4.48c0.09,-0.05 0.16,-0.12 0.21,-0.21 0.05,-0.09 0.07,-0.2 0.07,-0.31 0,-0.12 -0.02,-0.22 -0.07,-0.31 -0.05,-0.09 -0.12,-0.16 -0.21,-0.21 -0.08,-0.05 -0.18,-0.08 -0.29,-0.08 -0.11,0 -0.2,0.03 -0.29,0.08 -0.08,0.05 -0.15,0.12 -0.2,0.21 -0.05,0.09 -0.08,0.19 -0.08,0.31 0,0.11 0.03,0.22 0.08,0.31 0.05,0.09 0.12,0.16 0.2,0.21 0.09,0.05 0.18,0.07 0.29,0.07 0.11,0 0.21,-0.02 0.29,-0.07zm-0.65 0.1c-0.11,-0.06 -0.19,-0.14 -0.25,-0.25 -0.06,-0.11 -0.09,-0.24 -0.09,-0.37 0,-0.14 0.03,-0.26 0.09,-0.37 0.06,-0.11 0.14,-0.2 0.25,-0.26 0.11,-0.06 0.23,-0.09 0.36,-0.09 0.14,0 0.26,0.03 0.36,0.09 0.11,0.06 0.2,0.15 0.26,0.26 0.06,0.11 0.09,0.23 0.09,0.37 0,0.13 -0.03,0.26 -0.09,0.37 -0.06,0.11 -0.15,0.19 -0.26,0.25 -0.1,0.06 -0.22,0.1 -0.36,0.1 -0.13,0 -0.25,-0.04 -0.36,-0.1z"/>
  <path class="fil1" d="M29.75 3.39c0.1,0.11 0.16,0.26 0.16,0.45l0 0.82 -0.14 0 0 -0.81c0,-0.16 -0.04,-0.28 -0.12,-0.36 -0.08,-0.09 -0.19,-0.13 -0.34,-0.13 -0.16,0 -0.29,0.05 -0.39,0.15 -0.1,0.1 -0.14,0.23 -0.14,0.4l0 0.75 -0.14 0 0 -1.41 0.13 0 0 0.31c0.05,-0.1 0.12,-0.18 0.22,-0.24 0.1,-0.05 0.21,-0.08 0.34,-0.08 0.18,0 0.32,0.05 0.42,0.15z"/>
  <path class="fil1" d="M31.86 4.58c-0.03,0.03 -0.08,0.05 -0.13,0.07 -0.05,0.02 -0.1,0.03 -0.16,0.03 -0.12,0 -0.22,-0.04 -0.28,-0.11 -0.07,-0.06 -0.1,-0.16 -0.1,-0.28l0 -0.92 -0.26 0 0 -0.12 0.26 0 0 -0.31 0.13 0 0 0.31 0.45 0 0 0.12 -0.45 0 0 0.91c0,0.09 0.02,0.16 0.07,0.21 0.04,0.04 0.11,0.07 0.19,0.07 0.09,0 0.17,-0.03 0.22,-0.08l0.06 0.1z"/>
  <path class="fil1" d="M33.35 3.39c0.1,0.11 0.15,0.26 0.15,0.45l0 0.82 -0.13 0 0 -0.81c0,-0.16 -0.04,-0.28 -0.12,-0.36 -0.08,-0.09 -0.2,-0.13 -0.34,-0.13 -0.17,0 -0.3,0.05 -0.39,0.15 -0.1,0.1 -0.15,0.23 -0.15,0.4l0 0.75 -0.13 0 0 -2.01 0.13 0 0 0.9c0.05,-0.1 0.12,-0.18 0.22,-0.23 0.1,-0.05 0.21,-0.08 0.34,-0.08 0.18,0 0.32,0.05 0.42,0.15z"/>
  <path class="fil1" d="M34.32 3.43c-0.08,0.04 -0.15,0.1 -0.19,0.18 -0.05,0.08 -0.08,0.17 -0.09,0.27l1.09 0c-0.01,-0.1 -0.03,-0.19 -0.08,-0.27 -0.05,-0.08 -0.12,-0.14 -0.2,-0.18 -0.08,-0.05 -0.16,-0.07 -0.26,-0.07 -0.1,0 -0.19,0.02 -0.27,0.07zm0.94 0.56l-1.22 0c0.01,0.11 0.03,0.21 0.09,0.29 0.05,0.09 0.12,0.16 0.21,0.2 0.09,0.05 0.19,0.07 0.3,0.07 0.09,0 0.18,-0.01 0.26,-0.05 0.07,-0.03 0.14,-0.08 0.19,-0.14l0.08 0.08c-0.06,0.08 -0.14,0.14 -0.23,0.18 -0.09,0.04 -0.19,0.06 -0.3,0.06 -0.14,0 -0.27,-0.04 -0.38,-0.1 -0.11,-0.06 -0.2,-0.14 -0.26,-0.25 -0.06,-0.11 -0.09,-0.23 -0.09,-0.37 0,-0.14 0.03,-0.26 0.09,-0.37 0.06,-0.11 0.14,-0.2 0.24,-0.26 0.1,-0.06 0.22,-0.09 0.35,-0.09 0.12,0 0.24,0.03 0.34,0.09 0.1,0.06 0.18,0.15 0.24,0.25 0.06,0.11 0.09,0.23 0.09,0.37l0 0.04z"/>
  <path class="fil1" d="M14.29 8.38l-0.61 -1.41 -0.61 1.41 1.22 0zm0.2 0.48l-1.62 0 -0.32 0.75 -0.62 0 1.46 -3.24 0.59 0 1.46 3.24 -0.63 0 -0.32 -0.75z"/>
  <path class="fil1" d="M17.63 8.93c0.14,-0.14 0.2,-0.33 0.2,-0.56 0,-0.23 -0.06,-0.42 -0.2,-0.56 -0.14,-0.14 -0.31,-0.21 -0.53,-0.21 -0.14,0 -0.26,0.03 -0.37,0.09 -0.11,0.07 -0.2,0.16 -0.27,0.27 -0.06,0.12 -0.09,0.26 -0.09,0.41 0,0.15 0.03,0.29 0.09,0.41 0.07,0.12 0.16,0.21 0.27,0.27 0.11,0.06 0.23,0.09 0.37,0.09 0.22,0 0.39,-0.07 0.53,-0.21zm0.18 -1.67c0.19,0.11 0.34,0.26 0.45,0.45 0.11,0.19 0.16,0.41 0.16,0.66 0,0.25 -0.05,0.47 -0.16,0.66 -0.11,0.2 -0.26,0.35 -0.45,0.45 -0.19,0.11 -0.4,0.16 -0.64,0.16 -0.34,0 -0.6,-0.11 -0.79,-0.33l0 1.19 -0.58 0 0 -3.37 0.55 0 0 0.33c0.09,-0.12 0.21,-0.21 0.35,-0.27 0.14,-0.05 0.3,-0.08 0.47,-0.08 0.24,0 0.45,0.05 0.64,0.15z"/>
  <path class="fil1" d="M20.8 8.93c0.14,-0.14 0.21,-0.33 0.21,-0.56 0,-0.23 -0.07,-0.42 -0.21,-0.56 -0.13,-0.14 -0.31,-0.21 -0.52,-0.21 -0.14,0 -0.27,0.03 -0.38,0.09 -0.11,0.07 -0.2,0.16 -0.26,0.27 -0.07,0.12 -0.1,0.26 -0.1,0.41 0,0.15 0.03,0.29 0.1,0.41 0.06,0.12 0.15,0.21 0.26,0.27 0.11,0.06 0.24,0.09 0.38,0.09 0.21,0 0.39,-0.07 0.52,-0.21zm0.19 -1.67c0.19,0.11 0.34,0.26 0.45,0.45 0.1,0.19 0.16,0.41 0.16,0.66 0,0.25 -0.06,0.47 -0.16,0.66 -0.11,0.2 -0.26,0.35 -0.45,0.45 -0.19,0.11 -0.41,0.16 -0.65,0.16 -0.33,0 -0.59,-0.11 -0.79,-0.33l0 1.19 -0.58 0 0 -3.37 0.55 0 0 0.33c0.1,-0.12 0.22,-0.21 0.36,-0.27 0.14,-0.05 0.29,-0.08 0.46,-0.08 0.24,0 0.46,0.05 0.65,0.15z"/>
  <path class="fil1" d="M23.76 9.55c-0.23,-0.07 -0.42,-0.17 -0.55,-0.29l0.21 -0.46c0.13,0.1 0.29,0.19 0.49,0.25 0.19,0.07 0.38,0.1 0.58,0.1 0.24,0 0.42,-0.04 0.54,-0.11 0.11,-0.08 0.17,-0.18 0.17,-0.31 0,-0.09 -0.03,-0.17 -0.1,-0.23 -0.06,-0.06 -0.15,-0.1 -0.25,-0.14 -0.1,-0.03 -0.24,-0.07 -0.41,-0.11 -0.25,-0.06 -0.45,-0.12 -0.6,-0.18 -0.16,-0.06 -0.29,-0.15 -0.4,-0.28 -0.11,-0.12 -0.16,-0.29 -0.16,-0.5 0,-0.18 0.05,-0.34 0.14,-0.49 0.1,-0.15 0.25,-0.26 0.44,-0.35 0.2,-0.09 0.44,-0.13 0.72,-0.13 0.2,0 0.4,0.02 0.59,0.07 0.19,0.05 0.35,0.12 0.49,0.22l-0.19 0.46c-0.14,-0.08 -0.29,-0.14 -0.44,-0.19 -0.16,-0.04 -0.31,-0.06 -0.45,-0.06 -0.24,0 -0.42,0.04 -0.53,0.12 -0.12,0.08 -0.17,0.19 -0.17,0.32 0,0.09 0.03,0.17 0.09,0.23 0.07,0.05 0.16,0.1 0.26,0.14 0.1,0.03 0.24,0.07 0.41,0.11 0.24,0.06 0.44,0.11 0.6,0.17 0.15,0.06 0.28,0.16 0.39,0.28 0.11,0.12 0.17,0.29 0.17,0.5 0,0.18 -0.05,0.34 -0.15,0.49 -0.1,0.14 -0.24,0.26 -0.44,0.34 -0.2,0.09 -0.44,0.13 -0.72,0.13 -0.25,0 -0.5,-0.03 -0.73,-0.1z"/>
  <path class="fil1" d="M27.82 9.47c-0.06,0.06 -0.15,0.1 -0.24,0.13 -0.1,0.03 -0.2,0.04 -0.31,0.04 -0.27,0 -0.48,-0.07 -0.63,-0.21 -0.15,-0.15 -0.22,-0.35 -0.22,-0.62l0 -1.19 -0.41 0 0 -0.47 0.41 0 0 -0.56 0.58 0 0 0.56 0.66 0 0 0.47 -0.66 0 0 1.17c0,0.12 0.02,0.21 0.08,0.28 0.06,0.06 0.15,0.09 0.26,0.09 0.13,0 0.24,-0.03 0.32,-0.1l0.16 0.41z"/>
  <path class="fil1" d="M29.86 8.93c0.14,-0.14 0.2,-0.33 0.2,-0.56 0,-0.23 -0.06,-0.42 -0.2,-0.56 -0.14,-0.14 -0.32,-0.21 -0.53,-0.21 -0.21,0 -0.39,0.07 -0.53,0.21 -0.13,0.14 -0.2,0.33 -0.2,0.56 0,0.23 0.07,0.42 0.2,0.56 0.14,0.14 0.32,0.21 0.53,0.21 0.21,0 0.39,-0.07 0.53,-0.21zm-1.21 0.55c-0.2,-0.11 -0.35,-0.26 -0.47,-0.45 -0.11,-0.2 -0.17,-0.42 -0.17,-0.66 0,-0.24 0.06,-0.46 0.17,-0.65 0.12,-0.19 0.27,-0.34 0.47,-0.45 0.2,-0.11 0.43,-0.16 0.68,-0.16 0.25,0 0.48,0.05 0.68,0.16 0.2,0.11 0.36,0.26 0.47,0.45 0.11,0.19 0.17,0.41 0.17,0.65 0,0.24 -0.06,0.46 -0.17,0.66 -0.11,0.19 -0.27,0.34 -0.47,0.45 -0.2,0.1 -0.43,0.16 -0.68,0.16 -0.25,0 -0.48,-0.06 -0.68,-0.16z"/>
  <path class="fil1" d="M32.63 7.11l0 0.55c-0.05,-0.01 -0.09,-0.02 -0.13,-0.02 -0.23,0 -0.4,0.07 -0.53,0.2 -0.12,0.13 -0.19,0.32 -0.19,0.57l0 1.2 -0.58 0 0 -2.48 0.55 0 0 0.37c0.17,-0.26 0.46,-0.39 0.88,-0.39z"/>
  <path class="fil1" d="M33.71 7.73c-0.13,0.11 -0.21,0.26 -0.24,0.44l1.4 0c-0.02,-0.18 -0.1,-0.32 -0.22,-0.43 -0.13,-0.11 -0.29,-0.17 -0.47,-0.17 -0.19,0 -0.35,0.05 -0.47,0.16zm1.71 0.83l-1.94 0c0.03,0.18 0.12,0.32 0.26,0.43 0.15,0.11 0.32,0.16 0.54,0.16 0.27,0 0.49,-0.09 0.67,-0.27l0.31 0.36c-0.11,0.13 -0.25,0.23 -0.42,0.3 -0.17,0.06 -0.36,0.1 -0.58,0.1 -0.27,0 -0.51,-0.06 -0.71,-0.16 -0.21,-0.11 -0.37,-0.26 -0.48,-0.45 -0.12,-0.2 -0.17,-0.42 -0.17,-0.66 0,-0.24 0.05,-0.46 0.16,-0.65 0.11,-0.19 0.26,-0.34 0.46,-0.45 0.19,-0.11 0.41,-0.16 0.66,-0.16 0.24,0 0.45,0.05 0.64,0.16 0.19,0.1 0.34,0.25 0.45,0.45 0.1,0.19 0.16,0.41 0.16,0.66 0,0.04 -0.01,0.1 -0.01,0.18z"/>
 </g>
</svg>
