<?xml version="1.0" encoding="UTF-8"?>
<!DOCTYPE svg PUBLIC "-//W3C//DTD SVG 1.1//EN" "http://www.w3.org/Graphics/SVG/1.1/DTD/svg11.dtd">
<!-- Creator: CorelDRAW 2020 (64-Bit) -->
<svg xmlns="http://www.w3.org/2000/svg" xml:space="preserve" width="32px" height="32px" version="1.1" style="shape-rendering:geometricPrecision; text-rendering:geometricPrecision; image-rendering:optimizeQuality; fill-rule:evenodd; clip-rule:evenodd"
viewBox="0 0 32 32"
 xmlns:xlink="http://www.w3.org/1999/xlink"
 xmlns:xodm="http://www.corel.com/coreldraw/odm/2003">
 <defs>
  <style type="text/css">
   <![CDATA[
    .fil0 {fill:#010201;fill-rule:nonzero}
    .fil1 {fill:white;fill-rule:nonzero}
   ]]>
  </style>
 </defs>
 <g id="Слой_x0020_1">
  <metadata id="CorelCorpID_0Corel-Layer"/>
  <path class="fil0" d="M16 0c8.84,0 16,7.16 16,16 0,8.84 -7.16,16 -16,16 -8.84,0 -16,-7.16 -16,-16 0,-8.84 7.16,-16 16,-16z"/>
  <path class="fil1" d="M16 5.93c-2.74,0 -3.08,0.01 -4.15,0.06 -1.08,0.05 -1.81,0.22 -2.45,0.46 -0.66,0.26 -1.22,0.61 -1.78,1.17 -0.56,0.56 -0.91,1.12 -1.17,1.78 -0.24,0.64 -0.41,1.37 -0.46,2.45 -0.05,1.07 -0.06,1.41 -0.06,4.15 0,2.74 0.01,3.08 0.06,4.15 0.05,1.08 0.22,1.81 0.46,2.45 0.26,0.66 0.61,1.22 1.17,1.78 0.56,0.56 1.12,0.91 1.78,1.17 0.64,0.24 1.37,0.41 2.45,0.46 1.07,0.05 1.41,0.06 4.15,0.06 2.74,0 3.08,-0.01 4.15,-0.06 1.08,-0.05 1.81,-0.22 2.45,-0.46 0.66,-0.26 1.22,-0.61 1.78,-1.17 0.56,-0.56 0.91,-1.12 1.17,-1.78 0.24,-0.64 0.41,-1.37 0.46,-2.45 0.05,-1.07 0.06,-1.41 0.06,-4.15 0,-2.74 -0.01,-3.08 -0.06,-4.15 -0.05,-1.08 -0.22,-1.81 -0.46,-2.45 -0.26,-0.66 -0.61,-1.22 -1.17,-1.78 -0.56,-0.56 -1.12,-0.91 -1.78,-1.17 -0.64,-0.24 -1.37,-0.41 -2.45,-0.46 -1.07,-0.05 -1.41,-0.06 -4.15,-0.06l0 0zm0 1.81c2.69,0 3.01,0.01 4.07,0.06 0.98,0.04 1.52,0.21 1.87,0.35 0.47,0.18 0.81,0.4 1.16,0.75 0.35,0.35 0.57,0.69 0.75,1.16 0.14,0.35 0.31,0.89 0.35,1.87 0.05,1.06 0.06,1.38 0.06,4.07 0,2.69 -0.01,3.01 -0.06,4.07 -0.04,0.98 -0.21,1.52 -0.35,1.87 -0.18,0.47 -0.4,0.81 -0.75,1.16 -0.35,0.35 -0.69,0.57 -1.16,0.75 -0.35,0.14 -0.89,0.31 -1.87,0.35 -1.06,0.05 -1.38,0.06 -4.07,0.06 -2.69,0 -3.01,-0.01 -4.07,-0.06 -0.98,-0.04 -1.52,-0.21 -1.87,-0.35 -0.47,-0.18 -0.81,-0.4 -1.16,-0.75 -0.35,-0.35 -0.57,-0.69 -0.75,-1.16 -0.14,-0.35 -0.31,-0.89 -0.35,-1.87 -0.05,-1.06 -0.06,-1.38 -0.06,-4.07 0,-2.69 0.01,-3.01 0.06,-4.07 0.04,-0.98 0.21,-1.52 0.35,-1.87 0.18,-0.47 0.4,-0.81 0.75,-1.16 0.35,-0.35 0.69,-0.57 1.16,-0.75 0.35,-0.14 0.89,-0.31 1.87,-0.35 1.06,-0.05 1.38,-0.06 4.07,-0.06z"/>
  <path class="fil1" d="M16 19.36c-1.85,0 -3.36,-1.51 -3.36,-3.36 0,-1.85 1.51,-3.36 3.36,-3.36 1.85,0 3.36,1.51 3.36,3.36 0,1.85 -1.51,3.36 -3.36,3.36zm0 -8.53c-2.86,0 -5.17,2.31 -5.17,5.17 0,2.86 2.31,5.17 5.17,5.17 2.86,0 5.17,-2.31 5.17,-5.17 0,-2.86 -2.31,-5.17 -5.17,-5.17z"/>
  <path class="fil1" d="M22.59 10.62c0,0.67 -0.54,1.21 -1.21,1.21 -0.67,0 -1.21,-0.54 -1.21,-1.21 0,-0.67 0.54,-1.21 1.21,-1.21 0.67,0 1.21,0.54 1.21,1.21z"/>
 </g>
</svg>
