<?xml version="1.0" encoding="UTF-8"?>
<!DOCTYPE svg PUBLIC "-//W3C//DTD SVG 1.1//EN" "http://www.w3.org/Graphics/SVG/1.1/DTD/svg11.dtd">
<!-- Creator: CorelDRAW 2020 (64-Bit) -->
<svg xmlns="http://www.w3.org/2000/svg" xml:space="preserve" width="89px" height="27px" version="1.1" style="shape-rendering:geometricPrecision; text-rendering:geometricPrecision; image-rendering:optimizeQuality; fill-rule:evenodd; clip-rule:evenodd"
viewBox="0 0 39.9 12.13"
 xmlns:xlink="http://www.w3.org/1999/xlink"
 xmlns:xodm="http://www.corel.com/coreldraw/odm/2003">
 <defs>
  <style type="text/css">
   <![CDATA[
    .fil0 {fill:black;fill-rule:nonzero}
    .fil5 {fill:#05D5FB;fill-rule:nonzero}
    .fil3 {fill:#06EF79;fill-rule:nonzero}
    .fil4 {fill:#F93646;fill-rule:nonzero}
    .fil2 {fill:#FFD109;fill-rule:nonzero}
    .fil1 {fill:white;fill-rule:nonzero}
   ]]>
  </style>
 </defs>
 <g id="Слой_x0020_1">
  <metadata id="CorelCorpID_0Corel-Layer"/>
  <path class="fil0" d="M38.36 12.13l-36.82 0c-0.85,0 -1.54,-0.69 -1.54,-1.54l0 -9.05c0,-0.85 0.69,-1.54 1.54,-1.54l36.82 0c0.85,0 1.54,0.69 1.54,1.54l0 9.05c0,0.85 -0.69,1.54 -1.54,1.54z"/>
  <path class="fil1" d="M13.08 7.33l0.55 0 0 1.26c-0.16,0.13 -0.35,0.23 -0.57,0.3 -0.21,0.07 -0.44,0.1 -0.67,0.1 -0.32,0 -0.61,-0.07 -0.87,-0.21 -0.26,-0.14 -0.46,-0.33 -0.61,-0.58 -0.15,-0.24 -0.22,-0.52 -0.22,-0.83 0,-0.31 0.07,-0.59 0.22,-0.84 0.15,-0.25 0.35,-0.44 0.61,-0.58 0.26,-0.14 0.56,-0.21 0.88,-0.21 0.27,0 0.51,0.04 0.73,0.13 0.21,0.09 0.4,0.21 0.54,0.38l-0.37 0.37c-0.24,-0.25 -0.53,-0.37 -0.87,-0.37 -0.22,0 -0.42,0.05 -0.59,0.14 -0.18,0.1 -0.31,0.23 -0.41,0.4 -0.1,0.17 -0.15,0.36 -0.15,0.58 0,0.21 0.05,0.4 0.15,0.57 0.1,0.17 0.23,0.3 0.41,0.39 0.17,0.1 0.37,0.15 0.59,0.15 0.24,0 0.46,-0.06 0.65,-0.16l0 -0.99z"/>
  <path class="fil1" d="M15.95 8.29c0.14,-0.14 0.21,-0.32 0.21,-0.55 0,-0.22 -0.07,-0.41 -0.21,-0.55 -0.13,-0.13 -0.3,-0.2 -0.51,-0.2 -0.21,0 -0.38,0.07 -0.52,0.2 -0.13,0.14 -0.2,0.33 -0.2,0.55 0,0.23 0.07,0.41 0.2,0.55 0.14,0.14 0.31,0.21 0.52,0.21 0.21,0 0.38,-0.07 0.51,-0.21zm-1.17 0.53c-0.2,-0.1 -0.35,-0.25 -0.46,-0.44 -0.11,-0.19 -0.17,-0.4 -0.17,-0.64 0,-0.24 0.06,-0.45 0.17,-0.64 0.11,-0.18 0.26,-0.33 0.46,-0.44 0.19,-0.1 0.41,-0.15 0.66,-0.15 0.25,0 0.47,0.05 0.66,0.15 0.2,0.11 0.35,0.26 0.46,0.44 0.11,0.19 0.17,0.4 0.17,0.64 0,0.24 -0.06,0.45 -0.17,0.64 -0.11,0.19 -0.26,0.34 -0.46,0.44 -0.19,0.11 -0.41,0.16 -0.66,0.16 -0.25,0 -0.47,-0.05 -0.66,-0.16z"/>
  <path class="fil1" d="M18.87 8.29c0.14,-0.14 0.21,-0.32 0.21,-0.55 0,-0.22 -0.07,-0.41 -0.21,-0.55 -0.13,-0.13 -0.31,-0.2 -0.51,-0.2 -0.21,0 -0.38,0.07 -0.52,0.2 -0.13,0.14 -0.2,0.33 -0.2,0.55 0,0.23 0.07,0.41 0.2,0.55 0.14,0.14 0.31,0.21 0.52,0.21 0.2,0 0.38,-0.07 0.51,-0.21zm-1.17 0.53c-0.2,-0.1 -0.35,-0.25 -0.46,-0.44 -0.11,-0.19 -0.17,-0.4 -0.17,-0.64 0,-0.24 0.06,-0.45 0.17,-0.64 0.11,-0.18 0.26,-0.33 0.46,-0.44 0.19,-0.1 0.41,-0.15 0.66,-0.15 0.24,0 0.47,0.05 0.66,0.15 0.2,0.11 0.35,0.26 0.46,0.44 0.11,0.19 0.17,0.4 0.17,0.64 0,0.24 -0.06,0.45 -0.17,0.64 -0.11,0.19 -0.26,0.34 -0.46,0.44 -0.19,0.11 -0.42,0.16 -0.66,0.16 -0.25,0 -0.47,-0.05 -0.66,-0.16z"/>
  <path class="fil1" d="M21.82 8.17c0.14,-0.13 0.21,-0.3 0.21,-0.5 0,-0.2 -0.07,-0.37 -0.21,-0.49 -0.13,-0.13 -0.31,-0.19 -0.52,-0.19 -0.22,0 -0.4,0.06 -0.53,0.19 -0.14,0.12 -0.21,0.29 -0.21,0.49 0,0.2 0.07,0.37 0.21,0.5 0.13,0.13 0.31,0.19 0.53,0.19 0.21,0 0.39,-0.06 0.52,-0.19zm0.77 -1.64l0 2.05c0,0.85 -0.44,1.28 -1.31,1.28 -0.23,0 -0.45,-0.03 -0.66,-0.09 -0.2,-0.06 -0.38,-0.14 -0.51,-0.25l0.25 -0.43c0.11,0.09 0.24,0.16 0.4,0.21 0.16,0.05 0.33,0.08 0.49,0.08 0.27,0 0.46,-0.06 0.59,-0.18 0.12,-0.12 0.18,-0.31 0.18,-0.55l0 -0.13c-0.1,0.11 -0.21,0.19 -0.35,0.24 -0.14,0.05 -0.29,0.08 -0.46,0.08 -0.23,0 -0.44,-0.05 -0.62,-0.15 -0.19,-0.09 -0.33,-0.23 -0.44,-0.41 -0.11,-0.18 -0.16,-0.38 -0.16,-0.61 0,-0.23 0.05,-0.43 0.16,-0.61 0.11,-0.18 0.25,-0.31 0.44,-0.41 0.18,-0.1 0.39,-0.14 0.62,-0.14 0.18,0 0.34,0.03 0.48,0.08 0.14,0.06 0.26,0.15 0.36,0.27l0 -0.33 0.54 0z"/>
  <polygon class="fil1" points="23.33,8.95 23.89,8.95 23.89,5.59 23.33,5.59 "/>
  <path class="fil1" d="M25.23 7.12c-0.13,0.11 -0.2,0.25 -0.23,0.43l1.37 0c-0.03,-0.18 -0.1,-0.32 -0.22,-0.43 -0.13,-0.11 -0.28,-0.16 -0.46,-0.16 -0.19,0 -0.34,0.05 -0.46,0.16zm1.67 0.8l-1.9 0c0.04,0.18 0.12,0.32 0.26,0.43 0.14,0.1 0.32,0.15 0.53,0.15 0.26,0 0.48,-0.09 0.65,-0.26l0.3 0.35c-0.1,0.13 -0.24,0.23 -0.41,0.29 -0.16,0.07 -0.35,0.1 -0.56,0.1 -0.26,0 -0.5,-0.05 -0.7,-0.16 -0.2,-0.1 -0.36,-0.25 -0.47,-0.44 -0.11,-0.19 -0.16,-0.4 -0.16,-0.64 0,-0.23 0.05,-0.45 0.16,-0.63 0.1,-0.19 0.25,-0.34 0.44,-0.45 0.19,-0.1 0.41,-0.15 0.65,-0.15 0.23,0 0.44,0.05 0.63,0.15 0.18,0.11 0.33,0.25 0.43,0.44 0.1,0.19 0.16,0.41 0.16,0.66 0,0.03 -0.01,0.09 -0.01,0.16z"/>
  <path class="fil1" d="M30.61 7.38c0.13,-0.11 0.2,-0.27 0.2,-0.47 0,-0.2 -0.07,-0.36 -0.2,-0.47 -0.13,-0.11 -0.32,-0.16 -0.58,-0.16l-0.69 0 0 1.26 0.69 0c0.26,0 0.45,-0.06 0.58,-0.16zm0.16 -1.46c0.21,0.09 0.36,0.22 0.47,0.39 0.11,0.17 0.16,0.37 0.16,0.6 0,0.23 -0.05,0.43 -0.16,0.6 -0.11,0.17 -0.26,0.3 -0.47,0.39 -0.2,0.09 -0.44,0.14 -0.71,0.14l-0.72 0 0 0.91 -0.59 0 0 -3.17 1.31 0c0.27,0 0.51,0.05 0.71,0.14z"/>
  <polygon class="fil1" points="31.98,8.95 32.55,8.95 32.55,5.59 31.98,5.59 "/>
  <path class="fil1" d="M34.51 8.47c0.11,-0.06 0.19,-0.16 0.24,-0.28l0 -0.28 -0.59 0c-0.32,0 -0.48,0.11 -0.48,0.32 0,0.11 0.04,0.19 0.12,0.25 0.08,0.06 0.19,0.09 0.34,0.09 0.14,0 0.26,-0.03 0.37,-0.1zm0.52 -1.71c0.19,0.17 0.28,0.43 0.28,0.77l0 1.42 -0.53 0 0 -0.29c-0.07,0.1 -0.17,0.18 -0.3,0.24 -0.13,0.05 -0.28,0.08 -0.46,0.08 -0.18,0 -0.34,-0.03 -0.48,-0.09 -0.13,-0.06 -0.24,-0.15 -0.31,-0.26 -0.07,-0.11 -0.11,-0.23 -0.11,-0.37 0,-0.22 0.08,-0.39 0.24,-0.53 0.16,-0.13 0.42,-0.19 0.76,-0.19l0.63 0 0 -0.04c0,-0.17 -0.05,-0.3 -0.15,-0.39 -0.11,-0.09 -0.26,-0.13 -0.45,-0.13 -0.14,0 -0.27,0.02 -0.4,0.06 -0.14,0.04 -0.25,0.1 -0.34,0.18l-0.22 -0.41c0.13,-0.1 0.28,-0.18 0.46,-0.23 0.18,-0.05 0.36,-0.07 0.56,-0.07 0.36,0 0.63,0.08 0.82,0.25z"/>
  <path class="fil1" d="M38.25 6.53l-1.13 2.61c-0.1,0.27 -0.23,0.45 -0.38,0.56 -0.15,0.11 -0.34,0.16 -0.55,0.16 -0.12,0 -0.24,-0.02 -0.36,-0.06 -0.11,-0.04 -0.21,-0.09 -0.29,-0.16l0.23 -0.42c0.05,0.05 0.12,0.09 0.19,0.12 0.08,0.03 0.15,0.05 0.23,0.05 0.1,0 0.18,-0.03 0.24,-0.08 0.07,-0.05 0.13,-0.14 0.18,-0.26l0.04 -0.09 -1.05 -2.43 0.59 0 0.76 1.79 0.76 -1.79 0.54 0z"/>
  <path class="fil2" d="M9.6 5.91l-1.52 -0.87 -1.25 1.2 1.14 1.11 1.63 -0.94c0.09,-0.05 0.14,-0.15 0.14,-0.25 0,-0.1 -0.05,-0.2 -0.14,-0.25z"/>
  <polygon class="fil3" points="7.82,4.89 6.15,3.92 2.48,2.04 6.62,6.04 "/>
  <polygon class="fil4" points="2.54,10.39 6.16,8.4 7.72,7.5 6.62,6.44 "/>
  <polygon class="fil5" points="2.24,2.2 2.24,10.29 6.42,6.24 "/>
  <path class="fil1" d="M12.29 3.23l-0.42 0 0 -0.19 0.63 0 0 0.97 -0.21 0 0 -0.78zm-0.59 0.79c-0.13,0 -0.25,-0.02 -0.36,-0.08 -0.11,-0.05 -0.2,-0.13 -0.29,-0.22 -0.08,-0.1 -0.14,-0.2 -0.19,-0.32 -0.04,-0.12 -0.07,-0.24 -0.07,-0.37 0,-0.13 0.03,-0.25 0.07,-0.37 0.05,-0.12 0.11,-0.22 0.19,-0.31 0.08,-0.09 0.18,-0.17 0.29,-0.22 0.11,-0.05 0.23,-0.08 0.36,-0.08 0.19,0 0.34,0.04 0.47,0.12 0.12,0.08 0.21,0.18 0.27,0.31l-0.19 0.13c-0.05,-0.11 -0.13,-0.2 -0.23,-0.25 -0.1,-0.06 -0.21,-0.08 -0.33,-0.08 -0.09,0 -0.18,0.02 -0.26,0.06 -0.08,0.04 -0.15,0.1 -0.21,0.17 -0.06,0.07 -0.1,0.15 -0.13,0.24 -0.03,0.1 -0.05,0.19 -0.05,0.29 0,0.1 0.02,0.2 0.05,0.29 0.04,0.1 0.09,0.18 0.15,0.25 0.06,0.07 0.13,0.12 0.21,0.16 0.09,0.04 0.17,0.06 0.27,0.06 0.11,0 0.22,-0.03 0.32,-0.08 0.1,-0.06 0.19,-0.15 0.28,-0.26l0 0.25c-0.17,0.21 -0.38,0.31 -0.62,0.31z"/>
  <polygon class="fil1" points="14.19,3.79 14.19,4.01 12.87,4.01 12.87,2.07 14.17,2.07 14.17,2.29 13.12,2.29 13.12,2.92 14.03,2.92 14.03,3.12 13.12,3.12 13.12,3.79 "/>
  <polygon class="fil1" points="15.93,2.29 15.26,2.29 15.26,4.01 15.01,4.01 15.01,2.29 14.34,2.29 14.34,2.07 15.93,2.07 "/>
  <polygon class="fil1" points="16.82,4.01 17.07,4.01 17.07,2.07 16.82,2.07 "/>
  <polygon class="fil1" points="17.78,2.52 17.78,4.01 17.53,4.01 17.53,2.07 17.74,2.07 18.93,3.59 18.93,2.07 19.17,2.07 19.17,4.01 18.95,4.01 "/>
  <path class="fil1" d="M20.46 3.04c0,0.1 0.01,0.19 0.04,0.29 0.03,0.09 0.08,0.17 0.14,0.24 0.06,0.07 0.13,0.13 0.21,0.17 0.08,0.04 0.17,0.06 0.27,0.06 0.11,0 0.2,-0.02 0.28,-0.06 0.08,-0.05 0.15,-0.1 0.21,-0.18 0.06,-0.07 0.1,-0.15 0.13,-0.24 0.03,-0.1 0.05,-0.19 0.05,-0.28 0,-0.1 -0.02,-0.19 -0.05,-0.29 -0.03,-0.09 -0.08,-0.17 -0.14,-0.24 -0.06,-0.07 -0.13,-0.13 -0.21,-0.17 -0.08,-0.04 -0.17,-0.06 -0.27,-0.06 -0.1,0 -0.19,0.02 -0.28,0.06 -0.08,0.05 -0.15,0.1 -0.21,0.18 -0.05,0.07 -0.1,0.15 -0.13,0.24 -0.03,0.09 -0.04,0.18 -0.04,0.28zm0.66 0.98c-0.14,0 -0.26,-0.02 -0.37,-0.08 -0.11,-0.05 -0.21,-0.13 -0.29,-0.22 -0.08,-0.09 -0.14,-0.2 -0.19,-0.32 -0.04,-0.12 -0.06,-0.24 -0.06,-0.36 0,-0.13 0.02,-0.25 0.07,-0.37 0.04,-0.12 0.11,-0.22 0.19,-0.32 0.08,-0.09 0.18,-0.16 0.29,-0.22 0.11,-0.05 0.23,-0.08 0.37,-0.08 0.13,0 0.26,0.03 0.37,0.09 0.11,0.06 0.2,0.13 0.29,0.23 0.08,0.09 0.14,0.2 0.18,0.31 0.05,0.12 0.07,0.24 0.07,0.36 0,0.13 -0.03,0.26 -0.07,0.37 -0.05,0.12 -0.11,0.23 -0.19,0.32 -0.09,0.09 -0.18,0.16 -0.3,0.22 -0.11,0.05 -0.23,0.07 -0.36,0.07z"/>
  <polygon class="fil1" points="22.63,2.52 22.63,4.01 22.38,4.01 22.38,2.07 22.59,2.07 23.77,3.59 23.77,2.07 24.02,2.07 24.02,4.01 23.8,4.01 "/>
 </g>
</svg>
