<?xml version="1.0" encoding="UTF-8"?>
<!DOCTYPE svg PUBLIC "-//W3C//DTD SVG 1.1//EN" "http://www.w3.org/Graphics/SVG/1.1/DTD/svg11.dtd">
<!-- Creator: CorelDRAW 2020 (64-Bit) -->
<svg xmlns="http://www.w3.org/2000/svg" xml:space="preserve" width="32px" height="32px" version="1.1" style="shape-rendering:geometricPrecision; text-rendering:geometricPrecision; image-rendering:optimizeQuality; fill-rule:evenodd; clip-rule:evenodd"
viewBox="0 0 13.79 13.79"
 xmlns:xlink="http://www.w3.org/1999/xlink"
 xmlns:xodm="http://www.corel.com/coreldraw/odm/2003">
 <defs>
  <style type="text/css">
   <![CDATA[
    .fil0 {fill:#010201;fill-rule:nonzero}
    .fil1 {fill:#FEFEFE;fill-rule:nonzero}
   ]]>
  </style>
 </defs>
 <g id="Слой_x0020_1">
  <metadata id="CorelCorpID_0Corel-Layer"/>
  <path class="fil0" d="M13.79 6.89c0,3.81 -3.09,6.9 -6.9,6.9 -3.8,0 -6.89,-3.09 -6.89,-6.9 0,-3.8 3.09,-6.89 6.89,-6.89 3.81,0 6.9,3.09 6.9,6.89z"/>
  <path class="fil1" d="M7.43 5.95c0.11,-0.12 0.2,-0.25 0.32,-0.36 0.36,-0.34 0.78,-0.51 1.27,-0.51 0.28,0.01 0.54,0.03 0.81,0.1 0.59,0.18 0.94,0.59 1.11,1.17 0.12,0.44 0.14,0.89 0.15,1.34 0,0.95 -0.01,1.91 -0.01,2.86 0,0.09 -0.02,0.11 -0.11,0.11 -0.49,0 -0.98,0 -1.47,0 -0.09,0 -0.1,-0.03 -0.1,-0.11 0,-0.9 0,-1.81 0,-2.72 0,-0.22 -0.02,-0.45 -0.08,-0.67 -0.12,-0.41 -0.41,-0.61 -0.84,-0.59 -0.58,0.03 -0.88,0.32 -0.96,0.91 -0.01,0.14 -0.02,0.28 -0.02,0.42 0,0.88 0,1.77 0,2.65 0,0.08 -0.02,0.11 -0.11,0.11 -0.5,0 -0.99,0 -1.48,0 -0.08,0 -0.11,-0.02 -0.11,-0.1 0.01,-1.75 0.01,-3.49 0,-5.24 0,-0.08 0.03,-0.1 0.11,-0.1 0.47,0 0.94,0 1.41,0 0.09,0 0.11,0.03 0.11,0.11 -0.01,0.21 0,0.41 0,0.62z"/>
  <path class="fil1" d="M4.74 7.95c0,0.86 0,1.72 0,2.59 0,0.09 -0.02,0.12 -0.12,0.12 -0.49,0 -0.98,0 -1.47,0 -0.08,0 -0.11,-0.02 -0.11,-0.1 0.01,-1.75 0.01,-3.5 0.01,-5.24 0,-0.08 0.01,-0.1 0.09,-0.1 0.5,0 0.99,0 1.49,0 0.1,0 0.11,0.03 0.11,0.12 0,0.87 0,1.74 0,2.61z"/>
  <path class="fil1" d="M4.87 3.49c0,0.54 -0.44,0.98 -0.98,0.98 -0.53,0 -0.97,-0.44 -0.97,-0.97 -0.01,-0.54 0.44,-0.99 0.98,-0.99 0.53,0 0.97,0.44 0.97,0.98z"/>
 </g>
</svg>
