<?xml version="1.0" encoding="UTF-8"?>
<!DOCTYPE svg PUBLIC "-//W3C//DTD SVG 1.1//EN" "http://www.w3.org/Graphics/SVG/1.1/DTD/svg11.dtd">
<!-- Creator: CorelDRAW 2020 (64-Bit) -->
<svg xmlns="http://www.w3.org/2000/svg" xml:space="preserve" width="32px" height="32px" version="1.1" style="shape-rendering:geometricPrecision; text-rendering:geometricPrecision; image-rendering:optimizeQuality; fill-rule:evenodd; clip-rule:evenodd"
viewBox="0 0 5.67 5.67"
 xmlns:xlink="http://www.w3.org/1999/xlink"
 xmlns:xodm="http://www.corel.com/coreldraw/odm/2003">
 <defs>
  <style type="text/css">
   <![CDATA[
    .fil0 {fill:#010201}
    .fil1 {fill:white;fill-rule:nonzero}
   ]]>
  </style>
 </defs>
 <g id="Слой_x0020_1">
  <metadata id="CorelCorpID_0Corel-Layer"/>
  <path class="fil0" d="M5.67 2.84c0,1.56 -1.27,2.83 -2.83,2.83 -1.57,0 -2.84,-1.27 -2.84,-2.83 0,-1.57 1.27,-2.84 2.84,-2.84 1.56,0 2.83,1.27 2.83,2.84z"/>
  <path class="fil1" d="M2.26 4.47c1.39,0 2.15,-1.15 2.15,-2.14 0,-0.04 -0.01,-0.07 -0.01,-0.1 0.15,-0.11 0.28,-0.24 0.38,-0.39 -0.14,0.06 -0.28,0.1 -0.43,0.12 0.15,-0.1 0.27,-0.24 0.33,-0.42 -0.15,0.09 -0.31,0.15 -0.48,0.18 -0.14,-0.14 -0.33,-0.23 -0.55,-0.23 -0.42,0 -0.75,0.33 -0.75,0.75 0,0.06 0,0.12 0.02,0.17 -0.63,-0.03 -1.18,-0.33 -1.56,-0.79 -0.06,0.12 -0.1,0.24 -0.1,0.38 0,0.26 0.13,0.49 0.34,0.63 -0.13,0 -0.24,-0.04 -0.34,-0.09 0,0 0,0 0,0 0,0.37 0.26,0.67 0.6,0.74 -0.06,0.02 -0.13,0.03 -0.2,0.03 -0.05,0 -0.09,-0.01 -0.14,-0.01 0.1,0.3 0.37,0.51 0.7,0.52 -0.25,0.2 -0.58,0.32 -0.93,0.32 -0.06,0 -0.12,0 -0.18,-0.01 0.33,0.21 0.73,0.34 1.15,0.34z"/>
 </g>
</svg>
