<?xml version="1.0" encoding="UTF-8"?>
<!DOCTYPE svg PUBLIC "-//W3C//DTD SVG 1.1//EN" "http://www.w3.org/Graphics/SVG/1.1/DTD/svg11.dtd">
<!-- Creator: CorelDRAW 2020 (64-Bit) -->
<svg xmlns="http://www.w3.org/2000/svg" xml:space="preserve" width="32px" height="32px" version="1.1" style="shape-rendering:geometricPrecision; text-rendering:geometricPrecision; image-rendering:optimizeQuality; fill-rule:evenodd; clip-rule:evenodd"
viewBox="0 0 4.19 4.19"
 xmlns:xlink="http://www.w3.org/1999/xlink"
 xmlns:xodm="http://www.corel.com/coreldraw/odm/2003">
 <defs>
  <style type="text/css">
   <![CDATA[
    .fil0 {fill:#010201;fill-rule:nonzero}
    .fil1 {fill:white;fill-rule:nonzero}
   ]]>
  </style>
 </defs>
 <g id="Слой_x0020_1">
  <metadata id="CorelCorpID_0Corel-Layer"/>
  <path class="fil0" d="M4.19 2.09c0,-1.15 -0.94,-2.09 -2.1,-2.09 -1.15,0 -2.09,0.94 -2.09,2.09 0,1.05 0.77,1.91 1.77,2.07l0 -1.46 -0.54 0 0 -0.61 0.54 0 0 -0.46c0,-0.52 0.31,-0.81 0.79,-0.81 0.23,0 0.47,0.04 0.47,0.04l0 0.51 -0.27 0c-0.26,0 -0.34,0.17 -0.34,0.33l0 0.39 0.58 0 -0.09 0.61 -0.49 0 0 1.46c1,-0.16 1.77,-1.02 1.77,-2.07z"/>
  <path class="fil1" d="M2.91 2.7l0.09 -0.61 -0.58 0 0 -0.39c0,-0.16 0.08,-0.33 0.34,-0.33l0.27 0 0 -0.51c0,0 -0.24,-0.04 -0.47,-0.04 -0.48,0 -0.79,0.29 -0.79,0.81l0 0.46 -0.54 0 0 0.61 0.54 0 0 1.46c0.1,0.02 0.21,0.03 0.32,0.03 0.12,0 0.22,-0.01 0.33,-0.03l0 -1.46 0.49 0z"/>
 </g>
</svg>
